# xmcd
#
# Track frame offsets:
#	150
#	19902
#	33467
#	48075
#	80740
#	109805
#	132817
#	153120
#	169045
#	185710
#	211715
#	237517
#	255782
#	271715
#
# Disc length: 3943 seconds
#
# Revision: 0
# Processed by: cddbd v1.5.2PL0 Copyright (c) Steve Scherf et al.
# Submitted via: dBpowerAMP V4.0
#
DISCID=ad0f650e
DTITLE=Varios - Lembranças Inesquecíveis Vol. 05
DYEAR=1992
DGENRE=Ballad
TTITLE0=MIck Jagger - Hard Woman
TTITLE1=Queen - We Are The Champions
TTITLE2=Elton John - Goodbye Yellow Brick Road
TTITLE3=The Mood Blues - Talking Out Of Return
TTITLE4=Scorpions - Still Loving You
TTITLE5=Elton John - Sacrifice
TTITLE6=Europe - Carrie
TTITLE7=Phill Collins - Against All Odds
TTITLE8=Queen - Love Of My Life Live
TTITLE9=Elton John duet George MIchael - Don't Let The Sun Go Down On Me
TTITLE10=Phill Collins - On More Night (Live)
TTITLE11=STYX - Babe
TTITLE12=Allesi - Forever
TTITLE13=Pink Floyd - Mother
EXTD=Love Songs
EXTT0=
EXTT1=
EXTT2=
EXTT3=
EXTT4=
EXTT5=
EXTT6=
EXTT7=
EXTT8=
EXTT9=
EXTT10=
EXTT11=
EXTT12=
EXTT13=
PLAYORDER=
